<?xml version="1.0" standalone="no"?><!DOCTYPE svg PUBLIC "-//W3C//DTD SVG 1.1//EN" "http://www.w3.org/Graphics/SVG/1.1/DTD/svg11.dtd"><svg t="1593595812441" class="icon" viewBox="0 0 1024 1024" version="1.1" xmlns="http://www.w3.org/2000/svg" p-id="2132" xmlns:xlink="http://www.w3.org/1999/xlink" width="200" height="200"><defs><style type="text/css"></style></defs><path d="M512.183926 512m-512 0a512 512 0 1 0 1024 0 512 512 0 1 0-1024 0Z" fill="#FFFFFF" p-id="2133"></path><path d="M417.660849 341.661538a11.421538 11.421538 0 0 1 10.200616 9.097847l8.782769 49.703384s1.772308 10.633846-1.614769 18.313846c-3.623385 8.270769-14.808615 13.469538-14.808616 13.469539l-179.987692 67.190154s-3.150769 0.748308-5.198769 0c-1.969231-0.866462-2.441846-2.953846-2.441846-2.953846l-5.435077-19.771077s-0.945231-2.363077 0.236307-4.529231c0.945231-1.811692 2.796308-2.993231 2.796308-2.993231l173.528615-123.116308s6.144-5.159385 13.90277-4.411077M591.031926 341.661538a11.421538 11.421538 0 0 0-10.24 9.097847l-8.782769 49.703384s-1.772308 10.633846 1.614769 18.313846c3.623385 8.270769 14.808615 13.469538 14.808616 13.469539l179.987692 67.190154s3.150769 0.748308 5.198769 0c1.929846-0.866462 2.441846-2.953846 2.441846-2.953846l5.474462-19.771077s0.905846-2.363077-0.275693-4.529231c-0.945231-1.811692-2.796308-2.993231-2.796307-2.993231l-173.528616-123.116308s-6.144-5.159385-13.902769-4.411077" fill="#F58A1E" p-id="2134"></path><path d="M154.177772 599.512615c0.669538-2.048 4.529231-3.702154 4.529231-3.702153l271.202462-140.603077c27.805538-14.336 27.687385-47.261538 27.687384-47.261539l4.214154-92.632615v-0.078769c-1.811692-17.329231-21.779692-9.924923-26.308923-7.955693L264.021465 393.964308s-2.323692 1.457231-5.356308 0.590769c-2.284308-0.590769-3.465846-2.993231-3.465846-2.993231l-7.483077-18.628923s-1.260308-2.993231-0.551385-4.844308c0.748308-1.890462 2.520615-3.308308 2.520616-3.308307l191.015384-157.065846c20.795077-16.187077 26.308923-32.728615 27.844923-39.620924 0 0 3.347692-13.115077 6.695385-21.267692l0.315077-0.787692a21.937231 21.937231 0 0 1 2.402461-4.450462h0.07877a31.468308 31.468308 0 0 1 52.617846 0 21.267692 21.267692 0 0 1 2.363077 4.332308l0.472615 1.063385c3.308308 8.113231 6.616615 21.110154 6.616615 21.110153 1.536 6.892308 7.049846 23.433846 27.844924 39.620924l191.015384 157.065846s1.772308 1.417846 2.520616 3.308307c0.748308 1.851077-0.551385 4.844308-0.551385 4.844308l-7.483077 18.628923s-1.181538 2.402462-3.465846 2.993231c-3.032615 0.866462-5.356308-0.590769-5.356308-0.590769l-171.480615-86.685539c-4.568615-1.969231-24.497231-9.412923-26.348308 7.955693v0.078769l4.253539 92.672s-0.118154 32.886154 27.687384 47.182769l271.202462 140.603077s3.820308 1.693538 4.52923 3.741538c0.866462 2.244923 0 6.262154 0 6.262154l-10.003692 40.487385s-0.787692 3.662769-3.505231 4.883692c-3.347692 1.614769-7.325538 0.157538-7.325538 0.157539l-166.596923-59.155693c-2.126769-0.551385-7.089231-1.181538-5.750154 3.072v0.118154l136.034462 128.708923s3.072 2.520615 3.426461 5.947077c0.275692 3.268923-2.914462 6.971077-2.914461 6.971077l-54.390154 62.464s-5.513846 6.419692-13.115077 6.262154c-7.089231-0.157538-13.233231-7.246769-13.233231-7.246769l-140.445538-172.11077c-3.032615-4.962462-16.029538-7.246769-15.675077 6.22277l12.406153 268.524307s0.078769 5.435077-2.56 8.349539c-3.387077 3.702154-9.767385 3.938462-9.767384 3.938461H447.593157s-6.340923-0.236308-9.728-3.938461c-2.638769-2.914462-2.520615-8.349538-2.520615-8.349539l12.327384-268.524307c0.393846-13.469538-12.603077-11.185231-15.596308-6.22277l-140.524307 172.11077s-6.065231 7.089231-13.193846 7.246769c-7.601231 0.157538-13.115077-6.301538-13.115077-6.301539l-54.429539-62.424615s-3.150769-3.702154-2.875077-6.971077c0.393846-3.426462 3.387077-5.947077 3.387077-5.947077l136.034462-128.708923v-0.118154c1.417846-4.292923-3.584-3.623385-5.710769-3.072L175.012234 651.303385s-4.017231 1.457231-7.325539-0.157539c-2.756923-1.220923-3.544615-4.883692-3.544615-4.883692l-9.924923-40.487385s-0.945231-4.017231-0.078769-6.301538" fill="#0077C0" p-id="2135"></path></svg>